<svg viewBox="0 0 1024.438 110.208" xmlns="http://www.w3.org/2000/svg"><path d="m0 0h1024.438v110.208h-1024.438z" fill="#0f687e"/><g fill="#fff"><path d="m93.254 71.729v-7.271h-9.348v7.271h-5.592v-19.894l8.069-8.069h4.394l8.069 8.069v19.894zm0-17.578-4.674-4.674-4.674 4.674v4.794h9.348z"/><path d="m103.039 71.729v-5.514h3.995v-8.947h-3.995v-5.513h15.819l4.035 4.034v4.754h-5.593v-2.438l-.839-.838h-3.835v8.947h5.193v5.514h-14.781z"/><path d="m130.322 71.729-4.035-4.035v-11.905l4.035-4.034h14.501v5.513h-12.104l-.839.838v7.271l.839.838h12.104v5.514z"/><path d="m164.355 71.729v-13.623l-.839-.838h-8.509v14.461h-5.592v-27.963h5.592v7.989h10.906l4.035 4.034v15.94h-5.592z"/><path d="m173.74 71.729v-5.514h4.794v-8.947h-4.794v-5.513h10.387v14.46h4.793v5.514zm4.794-22.451v-5.513h5.593v5.513z"/><path d="m212.848 63.658-8.069 8.07h-4.394l-8.07-8.07v-11.904h5.593v9.587l4.674 4.674 4.674-4.674v-9.587h5.593v11.904z"/><path d="m221.275 71.729-4.035-4.035v-11.905l4.035-4.034h12.463l4.035 4.034v8.19h-14.94v1.398l.839.838h12.903v5.514zm10.905-14.022-.839-.84h-7.67l-.839.84v1.557h9.348z"/><path d="m240.967 71.729v-5.514h3.995v-8.947h-3.995v-5.513h15.819l4.035 4.034v4.754h-5.593v-2.438l-.839-.838h-3.835v8.947h5.193v5.514h-14.781z"/><path d="m292.736 71.729v-7.271h-9.348v7.271h-5.593v-19.894l8.069-8.069h4.394l8.069 8.069v19.894h-5.592zm0-17.578-4.674-4.674-4.674 4.674v4.794h9.348z"/><path d="m324.651 67.694-4.035 4.035h-10.906v7.988h-5.592v-27.962h16.498l4.035 4.034zm-5.592-2.317v-7.271l-.839-.838h-8.509v8.947h8.509z"/><path d="m350.375 67.694-4.035 4.035h-10.905v7.988h-5.593v-27.962h16.498l4.035 4.034zm-5.592-2.317v-7.271l-.839-.838h-8.509v8.947h8.509z"/><path d="m353.969 71.729v-5.514h4.794v-16.937h-4.794v-5.513h10.387v22.45h4.793v5.514z"/><path d="m372.543 71.729v-5.514h4.794v-8.947h-4.794v-5.513h10.387v14.46h4.793v5.514zm4.794-22.451v-5.513h5.593v5.513z"/><path d="m394.752 71.729-4.035-4.035v-4.395l4.035-4.035h10.906v-1.158l-.839-.838h-12.903v-5.513h15.3l4.035 4.034v15.94zm10.906-7.352h-8.509l-.839.84v.559l.839.84h8.509v-2.238z"/><path d="m431.583 71.729v-13.623l-.839-.838h-8.509v14.461h-5.592v-19.974h16.498l4.035 4.034v15.94h-5.592z"/><path d="m446.001 71.729-4.035-4.035v-11.905l4.035-4.034h14.501v5.513h-12.104l-.839.838v7.271l.839.838h12.104v5.514z"/><path d="m468.53 71.729-4.035-4.035v-11.905l4.035-4.034h12.463l4.035 4.034v8.19h-14.94v1.398l.839.838h12.903v5.514zm10.905-14.022-.839-.84h-7.67l-.839.84v1.557h9.348z"/><path d="m34.974 71.728v-4.875h6.204v4.875zm0-7.533v-6.204h6.204v6.204zm0-8.864v-11.965h6.204v11.965s-6.204 0-6.204 0zm11.079 16.397v-11.965h6.204v11.965zm0-14.624v-6.204h6.204v6.204zm0-8.863v-4.875h6.204v4.875zm11.079 23.487v-2.659h6.204v2.659zm0-5.761v-6.204h6.204v6.204zm0-8.863v-13.738h6.204v13.738z"/><path d="m1007.625 18.003.986-1.187c.552.47 1.256.799 1.89.799.716 0 1.068-.282 1.068-.74 0-.482-.434-.634-1.104-.917l-.998-.423c-.787-.318-1.538-.976-1.538-2.092 0-1.27 1.127-2.28 2.724-2.28.88 0 1.808.352 2.465 1.01l-.88 1.093c-.505-.388-.974-.611-1.585-.611-.599 0-.975.258-.975.693 0 .47.505.634 1.162.905l.986.399c.928.376 1.515.999 1.515 2.08 0 1.269-1.057 2.374-2.888 2.374-.998 0-2.054-.376-2.829-1.105"/><path d="m1001.25 15.182c0-2.538 1.678-4.018 3.616-4.018.986 0 1.784.47 2.3.999l-.915 1.104c-.387-.353-.798-.611-1.35-.611-1.045 0-1.878.928-1.878 2.468 0 1.575.727 2.491 1.854 2.491.622 0 1.115-.317 1.491-.717l.916 1.081c-.634.74-1.48 1.128-2.477 1.128-1.937 0-3.557-1.352-3.557-3.925"/><path d="m998.08 11.304h1.726v7.662h-1.726z"/><path d="m993.654 14.994c.951 0 1.409-.423 1.409-1.222s-.517-1.093-1.456-1.093h-.798v2.315h.846zm-2.57-3.69h2.629c1.679 0 3.04.611 3.04 2.468 0 1.798-1.373 2.597-2.993 2.597h-.951v2.597h-1.725s0-7.662 0-7.662z"/><path d="m984.65 11.304v7.662h4.907v-1.457h-3.182v-1.763h2.606v-1.445h-2.606v-1.54h3.064v-1.457z"/><path d="m1008.094 20.272v4.506h-1.543v-4.506h-5.247v4.506h-1.54v-4.506h-15.114v6.041h5.247v-4.507h1.543v4.507h5.247v-4.507h1.543v4.507h15.111v-6.041z"/><path d="m521.054 71.728 3.273-9.031h2.886l3.105 9.031h-2.265l-.686-2.031h-3.507l-.686 2.031h-2.122zm5.745-3.752-1.126-3.235-1.151 3.235z"/><path d="m535.731 62.722h6.211l1.772 1.592v2.199l-1.746 1.139 1.112.971v1.488l.66.66v.957h-1.838l-.776-.815v-1.644l-.673-.75h-2.704v3.209h-2.109zm5.358 4.05.673-.595v-.893l-.569-.647h-3.442v2.135h3.339z"/><path d="m551.717 71.728-1.825-2.006v-5.111l1.722-1.914h4.386l1.553 1.604v2.084h-2.044v-1.294l-.621-.596h-2.226l-.737.764v3.48l.814 1.01h2.122l.647-.737v-1.191h2.135v1.993l-2.006 1.915h-3.92z"/><path d="m563.768 62.696h2.006v3.532h3.791v-3.532h2.045v9.031h-2.045v-3.752h-3.791v3.752h-2.006z"/><path d="m577.877 62.696h2.07v9.031h-2.07z"/><path d="m585.591 62.709h2.187l2.395 7.271 2.588-7.271h2.031l-3.248 9.019h-2.82l-3.132-9.019z"/><path d="m600.373 62.696h6.573v1.733h-4.658v1.747h2.601v1.669h-2.601v1.837h4.658v2.045h-6.573z"/><path d="m630.337 62.696h3.223l1.798 6.017 1.747-6.017h3.364v9.031h-2.109v-6.47l-2.057 6.47h-1.915l-2.084-6.457v6.457h-1.967z"/><path d="m646.763 62.696h2.07v9.031h-2.07z"/><path d="m655.111 62.709h2.07v7.194h4.606v1.824h-6.677v-9.019z"/><path d="m667.46 62.709h2.07v7.194h4.606v1.824h-6.677v-9.019z"/><path d="m679.847 62.696h2.07v9.031h-2.07z"/><path d="m688.222 64.611 1.928-1.914h4.529l1.889 2.057v5.124l-1.876 1.851h-4.723l-1.747-1.838v-5.279zm2.704 5.305h2.782l.88-.944v-3.403l-.893-.958h-2.705l-.737.881v3.597l.673.828z"/><path d="m708.075 71.728-3.493-5.952v5.952h-2.097v-9.031h2.55l3.105 5.02v-5.02h1.967v9.031z"/><path d="m716.115 70.239v-1.423h1.863v.712l.479.452h2.536l.466-.479v-.854l-.673-.465h-2.821l-1.656-1.449v-2.614l1.501-1.41h3.908l1.384 1.333v1.487h-1.876v-.543l-.582-.557h-2.019l-.569.608v.725l.35.504h3.234l1.579 1.437v2.73l-1.579 1.294h-3.959z"/><path d="m745.744 64.611 1.928-1.914h4.529l1.889 2.057v5.124l-1.876 1.851h-4.723l-1.747-1.838v-5.279zm2.704 5.305h2.782l.88-.944v-3.403l-.893-.958h-2.705l-.737.881v3.597l.673.828z"/><path d="m760.111 62.696h6.807v1.901h-4.827v1.786h2.705v1.785h-2.705v3.559h-1.979v-9.031z"/><path d="m789.921 71.728v-9.031h5.72l1.63 1.617v2.898l-1.76 1.307h-3.532v3.209zm4.723-4.866.738-.505v-1.139l-.647-.646h-2.756v2.29z"/><path d="m802.567 62.709h2.187l2.395 7.271 2.588-7.271h2.031l-3.248 9.019h-2.82l-3.132-9.019z"/><path d="m817.206 70.239v-1.423h1.863v.712l.479.452h2.536l.466-.479v-.854l-.673-.465h-2.821l-1.656-1.449v-2.614l1.501-1.41h3.908l1.384 1.333v1.487h-1.876v-.543l-.582-.557h-2.019l-.569.608v.725l.35.504h3.234l1.579 1.437v2.73l-1.579 1.294h-3.959z"/></g></svg>